<svg width="17" height="21" viewBox="0 0 21 21" fill="none" xmlns="http://www.w3.org/2000/svg">
<path fill-rule="evenodd" clip-rule="evenodd" d="M11.1186 0.592285H2.59492C2.38114 0.592492 2.16949 0.630496 1.97208 0.704126C1.77466 0.777756 1.59532 0.88557 1.44432 1.02141C1.29332 1.15726 1.1736 1.31847 1.092 1.49584C1.01041 1.67322 0.968528 1.86329 0.968759 2.05519V18.81C0.968065 19.0017 1.00948 19.1916 1.09064 19.3689C1.1718 19.5462 1.29111 19.7074 1.44173 19.8433C1.59236 19.9791 1.77136 20.087 1.96848 20.1607C2.1656 20.2345 2.37698 20.2726 2.59052 20.2729H14.7753C15.2049 20.2727 15.6169 20.1195 15.9209 19.8471C16.2249 19.5746 16.3961 19.2051 16.3971 18.8194V5.69431L11.5247 0.592285H11.1186ZM10.7125 1.32137H2.58877C2.37465 1.32241 2.16962 1.39922 2.01821 1.53514C1.86681 1.67105 1.78123 1.85509 1.78008 2.0473V18.8194C1.78147 19.0121 1.8676 19.1965 2.01972 19.3325C2.17183 19.4684 2.37762 19.5449 2.59228 19.5454H14.7691C14.8755 19.5457 14.9808 19.5272 15.0792 19.4909C15.1775 19.4547 15.2669 19.4014 15.3424 19.3342C15.4178 19.2669 15.4777 19.187 15.5187 19.0989C15.5597 19.0109 15.581 18.9164 15.5813 18.821V6.42339H12.329C12.1153 6.42371 11.9037 6.38606 11.7062 6.31263C11.5088 6.23919 11.3295 6.13142 11.1787 5.99551C11.0279 5.85961 10.9085 5.69826 10.8274 5.52076C10.7464 5.34326 10.7052 5.15311 10.7064 4.96128V1.32137H10.7125ZM11.5247 1.68591V4.9597C11.524 5.15343 11.6088 5.33954 11.7605 5.47734C11.9122 5.61514 12.1185 5.69343 12.3343 5.6951H15.3414L11.5247 1.68591ZM7.46461 8.61065V9.33974H13.9605V8.61065H7.46461ZM3.40448 7.88157V10.068H5.84021V7.88157H3.40448ZM4.21668 8.61065V9.33974H5.02889V8.61065H4.21668ZM3.40448 11.5302V13.7166H5.84021V11.5262L3.40448 11.5302ZM4.21668 12.2592V12.9804H5.02889V12.2545L4.21668 12.2592ZM7.469 12.2592V12.9804H13.9649V12.2545L7.469 12.2592ZM3.40888 15.1787V17.3652H5.8446V15.1708L3.40888 15.1787ZM4.22108 15.9078V16.6369H5.03328V15.8999L4.22108 15.9078ZM7.4734 15.9078V16.6369H13.9693V15.8999L7.4734 15.9078Z" />
</svg>
